<svg xmlns="http://www.w3.org/2000/svg" viewBox="0 0 512 442">
  <!-- NetBird logo -->
  <g transform="translate(0, -70)">
    <path d="M364.3 68c-61.8 5.7-92.5 41.3-104.1 59.3l-5.2 9.1c-.4.8-.6 1.3-.6 1.3l-.1-.1L79.5 440.2h218L512.4 68z" fill="#f68330"/>
    <path d="M297.5 440.2.4 125s336-90.2 368.7 191.4z" fill="#f68330"/>
    <path d="m253.5 138.9-91.2 157.9 135.2 143.4 71.6-124c-11.3-96.9-58.5-149.7-115.6-177.3" fill="#f35e32"/>
  </g>
  <!-- Dashboard/Management icon badge (bottom-right) -->
  <g transform="translate(372, 320)">
    <circle cx="40" cy="40" r="38" fill="#1a1a2e"/>
    <!-- Gauge/dashboard icon -->
    <path d="M14 44 A22 22 0 0 1 66 44" fill="none" stroke="#f68330" stroke-width="5" stroke-linecap="round"/>
    <line x1="40" y1="44" x2="40" y2="22" stroke="#f68330" stroke-width="4" stroke-linecap="round"/>
    <line x1="40" y1="44" x2="54" y2="32" stroke="#f68330" stroke-width="4" stroke-linecap="round"/>
    <!-- Dots -->
    <circle cx="18" cy="54" r="3" fill="#f68330"/>
    <circle cx="62" cy="54" r="3" fill="#f68330"/>
    <circle cx="40" cy="14" r="3" fill="#f68330"/>
  </g>
</svg>
